
        <svg xmlns="http://www.w3.org/2000/svg" xmlns:xlink="http://www.w3.org/1999/xlink" version="1.1" width="3160.1731926460543" 
        height="759.7713846364641" viewBox="0 0 3160.1731926460543 759.7713846364641">
			<rect fill="#3d0240" width="3160.1731926460543" height="759.7713846364641"/>
			<g transform="scale(8.008659632302706) translate(10, 10)">
				<defs id="SvgjsDefs1307"></defs><g id="SvgjsG1308" featureKey="nRdZyp-0" transform="matrix(0.6590557928814738,0,0,0.6590557928814738,0,-4.942918446611053)" fill="#ffffff"><path xmlns="http://www.w3.org/2000/svg" d="M71.9,74.2c0.1,0,0.2,0.1,0.3,0.1c0.4,0,0.8-0.3,1-0.7l2.5-7c0.2-0.5-0.1-1.1-0.6-1.3c-0.5-0.2-1.1,0.1-1.3,0.6l-2.5,7  C71.1,73.5,71.4,74,71.9,74.2z"></path><path xmlns="http://www.w3.org/2000/svg" d="M69.5,59.1l-6.6,3.1c-0.5,0.2-0.7,0.9-0.5,1.4c0.2,0.4,0.5,0.6,0.9,0.6c0.1,0,0.3,0,0.4-0.1l6.6-3.1  c0.5-0.2,0.7-0.9,0.5-1.4C70.6,59.1,70,58.9,69.5,59.1z"></path><path xmlns="http://www.w3.org/2000/svg" d="M71.8,52.5c0.2-0.5-0.1-1.1-0.6-1.3l-6.9-2.5c-0.5-0.2-1.1,0.1-1.3,0.6c-0.2,0.5,0.1,1.1,0.6,1.3l6.9,2.5  c0.1,0,0.2,0.1,0.4,0.1C71.3,53.2,71.6,52.9,71.8,52.5z"></path><path xmlns="http://www.w3.org/2000/svg" d="M77,48.3c0.1,0,0.3,0,0.4-0.1c0.5-0.2,0.7-0.9,0.5-1.4l-3.1-6.7c-0.2-0.5-0.9-0.7-1.4-0.5C73,39.8,72.8,40.5,73,41l3.1,6.7  C76.3,48,76.6,48.3,77,48.3z"></path><path xmlns="http://www.w3.org/2000/svg" d="M84.9,49.2c0.4,0,0.8-0.3,1-0.7l2.5-7c0.2-0.5-0.1-1.1-0.6-1.3c-0.5-0.2-1.1,0.1-1.3,0.6l-2.5,7c-0.2,0.5,0.1,1.1,0.6,1.3  C84.6,49.2,84.7,49.2,84.9,49.2z"></path><path xmlns="http://www.w3.org/2000/svg" d="M89.7,55.5c0.1,0,0.3,0,0.4-0.1l6.6-3.1c0.5-0.2,0.7-0.9,0.5-1.4c-0.2-0.5-0.9-0.7-1.4-0.5l-6.6,3.1  c-0.5,0.2-0.7,0.9-0.5,1.4C89,55.2,89.4,55.5,89.7,55.5z"></path><path xmlns="http://www.w3.org/2000/svg" d="M117.5,27.1H30.8c-3-14.1-11.2-15-11.9-15.1h-6.3c-1-2.4-3.3-4.5-6.1-4.5C2.9,7.5,0,10.4,0,14c0,3.6,2.9,6.6,6.5,6.6  c2.8,0,5.1-2.2,6.1-4.6h5.9c0.2,0,5.7,1.7,7.8,13.2c2.7,15.3,9.7,53.7,9.7,53.7c0,4.3,2.6,12.1,12.2,12.1h37l-1.5-3.9H48.1  c-4.1,0-5.9-3-6.7-5.1c6.5-0.4,24.3-1.6,40-2.7L80,78.4c-16,1.1-33.7,2.3-39.4,2.7C39.3,74.6,34.4,47,31.7,32h85.1  c3.9,0,6.7,3.2,6.2,7.1l-3.6,29.4c0,0.1-0.1,0.7-0.5,1.5l4.4,2.2c0.8-1.7,1-2.9,1-3.1l3.7-30.2C128.7,32.4,124.1,27.1,117.5,27.1z"></path><path xmlns="http://www.w3.org/2000/svg" d="M107.7,80.5l8.4-3.3c0.8-0.3,1.3-1,1.3-1.8c0-0.8-0.4-1.6-1.1-2L80.9,55.5c-0.7-0.4-1.6-0.3-2.3,0.3  C78,56.3,77.7,57.2,78,58l12,38.7c0.2,0.8,1,1.4,1.8,1.5c0.8,0.1,1.6-0.4,2-1.1l4.8-9.2l10.3,13.7c0.3,0.4,0.8,0.7,1.4,0.8  c0.1,0,0.2,0,0.3,0c0.4,0,0.9-0.1,1.3-0.4l6.3-4.9c0.4-0.3,0.7-0.8,0.8-1.4c0.1-0.6-0.1-1.1-0.4-1.6L107.7,80.5z M110.9,97.4  l-11-14.6c-0.4-0.5-1-0.8-1.6-0.8c-0.1,0-0.1,0-0.2,0c-0.7,0.1-1.3,0.5-1.7,1.1l-4,7.7l-9.1-29.3l26.9,13.6l-6.6,2.6  c-0.6,0.2-1.1,0.8-1.2,1.4c-0.2,0.6,0,1.3,0.4,1.8l11.2,14.2L110.9,97.4z"></path><path xmlns="http://www.w3.org/2000/svg" d="M99.2,103.7c-4.7,0-8.6,3.9-8.6,8.7c0,4.8,3.9,8.7,8.6,8.7c4.7,0,8.6-3.9,8.6-8.7C107.8,107.6,103.9,103.7,99.2,103.7z   M99.2,116.9c-2.5,0-4.5-2-4.5-4.5c0-2.5,2-4.5,4.5-4.5c2.5,0,4.5,2,4.5,4.5C103.7,114.8,101.7,116.9,99.2,116.9z"></path><path xmlns="http://www.w3.org/2000/svg" d="M49.7,103.7c-4.7,0-8.6,3.9-8.6,8.7c0,4.8,3.9,8.7,8.6,8.7c4.7,0,8.6-3.9,8.6-8.7C58.3,107.6,54.4,103.7,49.7,103.7z   M49.7,116.9c-2.5,0-4.5-2-4.5-4.5c0-2.5,2-4.5,4.5-4.5c2.5,0,4.5,2,4.5,4.5C54.2,114.8,52.2,116.9,49.7,116.9z"></path></g><g id="SvgjsG1309" featureKey="Q4qmbg-0" transform="matrix(3.223731963613752,0,0,3.223731963613752,105.71179345860178,-10.666049684895977)" fill="#ffffff"><path d="M6.22 9.98 c2.9 0 4.82 2.18 4.82 5.1 s-2.12 5.08 -5.02 5.08 c-0.64 0 -1.72 -0.36 -2.04 -0.82 l0 0.66 l-2.96 0 l0 -14.52 l2.96 0 l0 5.34 c0.34 -0.5 1.62 -0.84 2.24 -0.84 z M5.82 17.92 c1.24 0 2.26 -1.28 2.26 -2.84 c0 -1.58 -1.02 -2.86 -2.26 -2.86 c-1.36 0 -2.24 1.54 -2.24 2.86 s0.9 2.84 2.24 2.84 z M17.22389583333333 12.42 c-1.22 0 -2.24 1.08 -2.24 2.66 c0 1.56 1.02 2.64 2.24 2.64 c1.24 0 2.26 -1.08 2.26 -2.64 c0 -1.58 -1.02 -2.66 -2.26 -2.66 z M17.22389583333333 9.98 c2.9 0 5.22 2.18 5.22 5.1 s-2.32 5.08 -5.22 5.08 c-2.88 0 -5.2 -2.16 -5.2 -5.08 s2.32 -5.1 5.2 -5.1 z M32.347791666666666 10.12 l-3.5 4.94 l3.5 4.94 l-3.4 0 l-1.68 -2.72 l-1.68 2.72 l-3.42 0 l3.52 -4.94 l-3.52 -4.94 l3.4 0 l1.68 2.7 c0.6 -0.88 1.12 -1.84 1.7 -2.7 l3.4 0 z M35.391687499999996 13.24 c0 1.18 5 0.62 5 3.74 c0 2.04 -1.8 3.18 -4.04 3.18 c-1.42 0 -2.84 -0.7 -3.96 -1.82 l1.94 -1.94 c0.56 0.68 1.36 1.2 2.02 1.26 s1.22 -0.22 1.32 -0.52 c0.24 -0.76 -1.14 -0.8 -1.56 -0.92 c-1.58 -0.48 -3.42 -1.14 -3.42 -3.1 c0 -2.34 2.44 -3.14 3.66 -3.14 c1.4 0 2.82 0.64 3.96 1.8 l-1.92 1.92 c-0.52 -0.68 -1.42 -1.22 -2.04 -1.22 c-0.32 0 -0.96 0.12 -0.96 0.76 z M51.81558333333333 15.08 c0 2.92 -1.94 5.08 -4.84 5.08 c-0.6 0 -1.78 -0.36 -2.24 -0.82 l0 5.3 l-2.96 0 l0 -14.52 l2.96 0 l0 0.7 c0.42 -0.5 1.18 -0.84 2.04 -0.84 c2.9 0 5.04 2.18 5.04 5.1 z M48.83558333333333 15.08 c0 -1.58 -1.02 -2.86 -2.26 -2.86 c-0.76 0 -1.5 0.56 -1.9 1.36 c-0.18 0.4 -0.32 0.96 -0.32 1.5 c0 0.56 0.12 1.06 0.32 1.48 c0.42 0.82 1.12 1.36 1.9 1.36 c1.24 0 2.26 -1.28 2.26 -2.84 z M55.37947916666666 13.04 l-2.2 -1.26 c1.1 -1.24 2.58 -1.82 4.12 -1.82 c2.96 0 4.16 1.62 4.16 3.14 l0 6.9 l-2.96 0 l0 -0.7 c-0.46 0.48 -1.28 0.84 -2.2 0.84 c-2.7 0 -3.74 -1.2 -3.74 -3.04 c0 -2.08 1.68 -3.48 4.4 -3.48 l1.54 0 c0 -0.74 -0.56 -1.22 -1.4 -1.22 c-0.86 0 -1.28 0.16 -1.72 0.64 z M58.49947916666667 16.740000000000002 l0 -0.88 l-1.74 0 c-0.78 0 -1.36 0.54 -1.24 1.3 c0.08 0.54 0.56 0.76 1.24 0.76 c1.3 0 1.74 -0.74 1.74 -1.18 z M70.183375 16.46 l2.08 1.88 c-1.12 1.24 -2.58 1.82 -4.14 1.82 c-2.88 0 -5.2 -2.16 -5.2 -5.08 s2.32 -5.1 5.2 -5.1 c1.56 0 3.02 0.58 4.14 1.82 l-2.08 1.88 c-0.44 -1.02 -1.4 -1.26 -2.06 -1.26 c-1.22 0 -2.24 1.08 -2.24 2.66 c0 1.56 1.02 2.64 2.24 2.64 c0.66 0 1.64 -0.18 2.06 -1.26 z M83.40727083333331 15.08 l0 0.66 l-7.04 0 c0 1.16 1.18 1.98 2.16 1.98 c0.96 0 1.84 -0.38 2.3 -1.22 l1.98 1.82 c-0.8 1.08 -2.02 1.84 -4.28 1.84 c-3.24 0 -5.22 -2.16 -5.22 -5.08 s1.92 -5.1 5.04 -5.1 s5.06 2.14 5.06 5.1 z M76.42727083333332 13.86 l3.88 0 c-0.16 -0.94 -0.84 -1.44 -1.96 -1.44 c-1.08 0 -1.74 0.58 -1.92 1.44 z"></path></g>
			</g>
		</svg>
	